<svg xmlns="http://www.w3.org/2000/svg" width="480" height="600" viewBox="0 0 480 600" role="img"><title>Illustration</title><path d="M96 540V250a144 144 0 0 1 288 0V540Z" fill="#fff" opacity=".5"/><path d="M96 540V250a144 144 0 0 1 288 0V540Z" fill="none" stroke="#b8935a" stroke-opacity=".55" stroke-width="2"/><g transform="translate(30 60) scale(0.8)"><ellipse cx="240" cy="468" rx="96" ry="10" fill="#231a1c" opacity=".1"/>
    <rect x="218" y="222" width="44" height="34" rx="4" fill="#ae7a44"/>
    <rect x="212" y="212" width="56" height="12" rx="3" fill="#b8935a"/>
    <rect x="206" y="144" width="68" height="70" rx="14" fill="#1d1517"/><rect x="216" y="154" width="8" height="46" rx="4" fill="#fff" opacity=".3"/>
    <rect x="168" y="250" width="144" height="212" rx="42" fill="#e8a35a" stroke="#a2723f" stroke-width="2"/><rect x="184" y="270" width="12" height="140" rx="6" fill="#fff" opacity=".42"/><rect x="198" y="330" width="84" height="64" rx="4" fill="#fff" fill-opacity=".88" stroke="#b8935a" stroke-width="1.5"/><rect x="210" y="353.04" width="60" height="3" rx="1.5" fill="#b8935a"/><rect x="220" y="368.4" width="40" height="3" rx="1.5" fill="#b8935a" opacity=".6"/></g><g transform="translate(190 120) scale(0.82)"><ellipse cx="240" cy="472" rx="94" ry="10" fill="#231a1c" opacity=".1"/>
    <rect x="214" y="240" width="52" height="34" rx="4" fill="#1e1416"/>
    <rect x="198" y="170" width="84" height="74" rx="8" fill="#2b1d20"/><rect x="208" y="180" width="8" height="52" rx="4" fill="#fff" opacity=".25"/><rect x="198" y="236" width="84" height="8" fill="#b8935a"/>
    <rect x="170" y="268" width="140" height="204" rx="10" fill="#2b1d20" stroke="#1e1416" stroke-width="2"/><rect x="184" y="284" width="12" height="150" rx="6" fill="#fff" opacity=".42"/><rect x="198" y="340" width="84" height="64" rx="4" fill="#fff" fill-opacity=".88" stroke="#b8935a" stroke-width="1.5"/><rect x="210" y="363.04" width="60" height="3" rx="1.5" fill="#b8935a"/><rect x="220" y="378.4" width="40" height="3" rx="1.5" fill="#b8935a" opacity=".6"/></g></svg>
